<svg width="24" height="24" viewBox="0 0 24 24" fill="none" xmlns="http://www.w3.org/2000/svg">
<g id="icoxl/alert_circle">
<circle id="Ellipse 146" cx="12" cy="12" r="11" fill="#BDBDBD"/>
<g id="notification">
<path id="Vector (Stroke)" fill-rule="evenodd" clip-rule="evenodd" d="M7.39961 9.88304C7.39961 7.33545 9.46937 5.26562 12.0169 5.26562C14.5576 5.26562 16.6342 7.34229 16.6342 9.88304V11.86C16.6342 12.007 16.6674 12.2221 16.7305 12.452C16.7927 12.679 16.8732 12.8809 16.9464 13.009L17.7308 14.3117C18.3502 15.3442 17.855 16.6891 16.7139 17.0669C13.6604 18.0869 10.3658 18.0868 7.31228 17.0666L7.31037 17.066C6.73413 16.8709 6.30198 16.4677 6.10876 15.9458C5.91532 15.4234 5.98113 14.8353 6.2965 14.3112L7.08207 13.0064C7.08224 13.0061 7.08241 13.0059 7.08259 13.0056C7.15749 12.8796 7.23955 12.6785 7.30287 12.4504C7.36638 12.2216 7.39961 12.0068 7.39961 11.86V9.88304ZM12.0169 6.29172C10.036 6.29172 8.42567 7.90215 8.42567 9.88304V11.86C8.42567 12.1304 8.36997 12.4423 8.29154 12.7249C8.21307 13.0076 8.10041 13.302 7.9634 13.5319L7.96225 13.5338L7.17568 14.8402C7.17565 14.8403 7.1757 14.8402 7.17568 14.8402C7.00545 15.1232 6.99595 15.3869 7.07098 15.5895C7.14617 15.7926 7.32596 15.9877 7.63841 16.0937C10.4808 17.0432 13.5471 17.0431 16.3895 16.0934L16.391 16.0929C16.9046 15.9231 17.1342 15.3123 16.8511 14.84C16.8511 14.8399 16.8512 14.8402 16.8511 14.84L16.0597 13.5256C15.9283 13.2978 15.8183 13.0054 15.7409 12.7233C15.6638 12.4419 15.6081 12.1303 15.6081 11.86V9.88304C15.6081 7.90899 13.9909 6.29172 12.0169 6.29172Z" fill="white"/>
<path id="Vector (Stroke)_2" fill-rule="evenodd" clip-rule="evenodd" d="M10.2737 5.78933C10.547 5.09208 11.2253 4.60156 12.0169 4.60156C12.8084 4.60156 13.4868 5.09208 13.76 5.78933C13.8313 5.97134 13.793 6.17807 13.6612 6.32244C13.5294 6.46681 13.327 6.52373 13.1393 6.46923C12.9495 6.41414 12.758 6.37256 12.5639 6.34903L12.562 6.3488C11.9707 6.27489 11.412 6.31876 10.8946 6.46918C10.7068 6.52376 10.5044 6.46688 10.3726 6.32251C10.2407 6.17813 10.2024 5.97137 10.2737 5.78933Z" fill="white"/>
<path id="Vector (Stroke)_3" fill-rule="evenodd" clip-rule="evenodd" d="M10.4777 16.8242C10.4777 17.2432 10.652 17.6342 10.9294 17.9117C11.2068 18.1891 11.5978 18.3634 12.0168 18.3634C12.8621 18.3634 13.5559 17.6696 13.5559 16.8242H14.582C14.582 18.2363 13.4288 19.3895 12.0168 19.3895C11.314 19.3895 10.6652 19.0986 10.2039 18.6372C9.74251 18.1758 9.45166 17.5271 9.45166 16.8242H10.4777Z" fill="white"/>
</g>
</g>
</svg>
