<svg width="16" height="18" viewBox="0 0 16 18" fill="none" xmlns="http://www.w3.org/2000/svg">
<g id="vuesax/linear/archive-minus">
<g id="archive-minus">
<path id="Vector (Stroke)" fill-rule="evenodd" clip-rule="evenodd" d="M5.29175 7.875C5.29175 7.52982 5.57157 7.25 5.91675 7.25H10.0834C10.4286 7.25 10.7084 7.52982 10.7084 7.875C10.7084 8.22018 10.4286 8.5 10.0834 8.5H5.91675C5.57157 8.5 5.29175 8.22018 5.29175 7.875Z" fill="#212123"/>
<path id="Vector (Stroke)_2" fill-rule="evenodd" clip-rule="evenodd" d="M0.141724 3.88317C0.141724 1.77238 1.86216 0.0415039 3.98339 0.0415039H12.0167C14.1385 0.0415039 15.8568 1.77231 15.8667 3.88022L15.8667 3.88317L15.8667 15.6248C15.8667 16.5154 15.5442 17.3033 14.8568 17.7082C14.1693 18.1131 13.3244 18.0125 12.5466 17.5796M12.5466 17.5796L8.47443 15.3182C8.3798 15.2644 8.21232 15.2186 8.00735 15.2186C7.803 15.2186 7.63092 15.2641 7.52947 15.3207L3.46182 17.5796L3.45986 17.5807C2.68129 18.0094 1.83746 18.1058 1.15164 17.7019C0.465332 17.2977 0.141724 16.5129 0.141724 15.6248V3.88317M3.98339 1.2915C2.55462 1.2915 1.39172 2.46063 1.39172 3.88317V15.6248C1.39172 16.2367 1.60562 16.5186 1.78598 16.6248C1.96671 16.7313 2.31839 16.7819 2.85594 16.4862C2.85627 16.486 2.8566 16.4859 2.85693 16.4857L6.92064 14.229C6.9205 14.2291 6.92077 14.2289 6.92064 14.229C7.25244 14.0441 7.64726 13.9686 8.00735 13.9686C8.36586 13.9686 8.75954 14.0432 9.08929 14.2298L13.1535 16.4868C13.6922 16.7868 14.0435 16.7365 14.2225 16.6311C14.4017 16.5255 14.6167 16.2426 14.6167 15.6248V3.88484C14.6093 2.46 13.4445 1.2915 12.0167 1.2915H3.98339Z" fill="#212123"/>
</g>
</g>
</svg>
