<svg width="16" height="18" viewBox="0 0 16 18" fill="none" xmlns="http://www.w3.org/2000/svg">
<g id="vuesax/linear/archive-minus">
<g id="archive-minus">
<path id="Vector (Stroke)" fill-rule="evenodd" clip-rule="evenodd" d="M0.141663 3.88317C0.141663 1.77238 1.8621 0.0415039 3.98333 0.0415039H12.0167C14.1385 0.0415039 15.8567 1.77231 15.8667 3.88022L15.8667 3.88317L15.8667 15.6248C15.8667 16.5154 15.5441 17.3033 14.8567 17.7082C14.1692 18.1131 13.3243 18.0125 12.5466 17.5796M12.5466 17.5796L8.47437 15.3182C8.37974 15.2644 8.21226 15.2186 8.00729 15.2186C7.80294 15.2186 7.63086 15.2641 7.52941 15.3207L3.46176 17.5796L3.45979 17.5807C2.68123 18.0094 1.8374 18.1058 1.15158 17.7019C0.465271 17.2977 0.141663 16.5129 0.141663 15.6248V3.88317" fill="#212123"/>
<path id="Vector (Stroke)_2" fill-rule="evenodd" clip-rule="evenodd" d="M5.29169 7.875C5.29169 7.52982 5.57151 7.25 5.91669 7.25H10.0834C10.4285 7.25 10.7084 7.52982 10.7084 7.875C10.7084 8.22018 10.4285 8.5 10.0834 8.5H5.91669C5.57151 8.5 5.29169 8.22018 5.29169 7.875Z" fill="white"/>
</g>
</g>
</svg>
