<svg width="13" height="14" viewBox="0 0 13 14" fill="none" xmlns="http://www.w3.org/2000/svg">
<g id="vuesax/linear/calendar">
<g id="calendar">
<path id="Vector (Stroke)" fill-rule="evenodd" clip-rule="evenodd" d="M4.16669 0.729248C4.40831 0.729248 4.60419 0.925123 4.60419 1.16675V2.91675C4.60419 3.15837 4.40831 3.35425 4.16669 3.35425C3.92506 3.35425 3.72919 3.15837 3.72919 2.91675V1.16675C3.72919 0.925123 3.92506 0.729248 4.16669 0.729248Z" fill="#9E9E9E"/>
<path id="Vector (Stroke)_2" fill-rule="evenodd" clip-rule="evenodd" d="M8.83331 0.729248C9.07494 0.729248 9.27081 0.925123 9.27081 1.16675V2.91675C9.27081 3.15837 9.07494 3.35425 8.83331 3.35425C8.59169 3.35425 8.39581 3.15837 8.39581 2.91675V1.16675C8.39581 0.925123 8.59169 0.729248 8.83331 0.729248Z" fill="#9E9E9E"/>
<path id="Vector (Stroke)_3" fill-rule="evenodd" clip-rule="evenodd" d="M1.10419 5.30249C1.10419 5.06087 1.30006 4.86499 1.54169 4.86499H11.4584C11.7 4.86499 11.8959 5.06087 11.8959 5.30249C11.8959 5.54411 11.7 5.73999 11.4584 5.73999H1.54169C1.30006 5.73999 1.10419 5.54411 1.10419 5.30249Z" fill="#9E9E9E"/>
<path id="Vector (Stroke)_4" fill-rule="evenodd" clip-rule="evenodd" d="M2.26331 3.14153C1.88955 3.54404 1.6875 4.15048 1.6875 4.95842V9.91675C1.6875 10.7247 1.88955 11.3311 2.26331 11.7336C2.63161 12.1303 3.22922 12.3959 4.16667 12.3959H8.83333C9.77078 12.3959 10.3684 12.1303 10.7367 11.7336C11.1105 11.3311 11.3125 10.7247 11.3125 9.91675V4.95842C11.3125 4.15048 11.1105 3.54404 10.7367 3.14153C10.3684 2.74489 9.77078 2.47925 8.83333 2.47925H4.16667C3.22922 2.47925 2.63161 2.74489 2.26331 3.14153ZM1.62211 2.54613C2.20172 1.92194 3.06245 1.60425 4.16667 1.60425H8.83333C9.93755 1.60425 10.7983 1.92194 11.3779 2.54613C11.952 3.16446 12.1875 4.01635 12.1875 4.95842V9.91675C12.1875 10.8588 11.952 11.7107 11.3779 12.329C10.7983 12.9532 9.93755 13.2709 8.83333 13.2709H4.16667C3.06245 13.2709 2.20172 12.9532 1.62211 12.329C1.04795 11.7107 0.8125 10.8588 0.8125 9.91675V4.95842C0.8125 4.01635 1.04795 3.16446 1.62211 2.54613Z" fill="#9E9E9E"/>
<path id="Vector (Stroke)_5" fill-rule="evenodd" clip-rule="evenodd" d="M8.0719 7.99178C8.0719 7.66961 8.33307 7.40845 8.65523 7.40845H8.66047C8.98264 7.40845 9.24381 7.66961 9.24381 7.99178C9.24381 8.31395 8.98264 8.57511 8.66047 8.57511H8.65523C8.33307 8.57511 8.0719 8.31395 8.0719 7.99178Z" fill="#9E9E9E"/>
<path id="Vector (Stroke)_6" fill-rule="evenodd" clip-rule="evenodd" d="M8.0719 9.74178C8.0719 9.41961 8.33307 9.15845 8.65523 9.15845H8.66047C8.98264 9.15845 9.24381 9.41961 9.24381 9.74178C9.24381 10.0639 8.98264 10.3251 8.66047 10.3251H8.65523C8.33307 10.3251 8.0719 10.0639 8.0719 9.74178Z" fill="#9E9E9E"/>
<path id="Vector (Stroke)_7" fill-rule="evenodd" clip-rule="evenodd" d="M5.91406 7.99178C5.91406 7.66961 6.17523 7.40845 6.4974 7.40845H6.50264C6.8248 7.40845 7.08597 7.66961 7.08597 7.99178C7.08597 8.31395 6.8248 8.57511 6.50264 8.57511H6.4974C6.17523 8.57511 5.91406 8.31395 5.91406 7.99178Z" fill="#9E9E9E"/>
<path id="Vector (Stroke)_8" fill-rule="evenodd" clip-rule="evenodd" d="M5.91406 9.74178C5.91406 9.41961 6.17523 9.15845 6.4974 9.15845H6.50264C6.8248 9.15845 7.08597 9.41961 7.08597 9.74178C7.08597 10.0639 6.8248 10.3251 6.50264 10.3251H6.4974C6.17523 10.3251 5.91406 10.0639 5.91406 9.74178Z" fill="#9E9E9E"/>
<path id="Vector (Stroke)_9" fill-rule="evenodd" clip-rule="evenodd" d="M3.755 7.99178C3.755 7.66961 4.01617 7.40845 4.33834 7.40845H4.34358C4.66574 7.40845 4.92691 7.66961 4.92691 7.99178C4.92691 8.31395 4.66574 8.57511 4.34358 8.57511H4.33834C4.01617 8.57511 3.755 8.31395 3.755 7.99178Z" fill="#9E9E9E"/>
<path id="Vector (Stroke)_10" fill-rule="evenodd" clip-rule="evenodd" d="M3.755 9.74178C3.755 9.41961 4.01617 9.15845 4.33834 9.15845H4.34358C4.66574 9.15845 4.92691 9.41961 4.92691 9.74178C4.92691 10.0639 4.66574 10.3251 4.34358 10.3251H4.33834C4.01617 10.3251 3.755 10.0639 3.755 9.74178Z" fill="#9E9E9E"/>
</g>
</g>
</svg>
