<svg width="20" height="20" viewBox="0 0 20 20" fill="none" xmlns="http://www.w3.org/2000/svg">
<g id="ico/lg/checkbox">
<path id="Vector (Stroke)" d="M2.628 2.62821C3.72066 1.53555 5.36188 1.11133 7.5 1.11133H12.5C14.6381 1.11133 16.2793 1.53555 17.372 2.62821C18.4647 3.72088 18.8889 5.36209 18.8889 7.50022V12.5002C18.8889 14.6383 18.4647 16.2796 17.372 17.3722C16.2793 18.4649 14.6381 18.8891 12.5 18.8891H7.5C5.36188 18.8891 3.72066 18.4649 2.628 17.3722C1.53534 16.2796 1.11111 14.6383 1.11111 12.5002V7.50022C1.11111 5.36209 1.53534 3.72088 2.628 2.62821Z" fill="#212123"/>
<path id="Vector (Stroke)_2" fill-rule="evenodd" clip-rule="evenodd" d="M13.9349 7.249C14.1516 7.46615 14.1513 7.81791 13.9342 8.03468L9.20916 12.7513C8.99214 12.968 8.64065 12.9678 8.42383 12.751L6.0655 10.3927C5.84854 10.1757 5.84854 9.82395 6.0655 9.60699C6.28246 9.39003 6.63421 9.39003 6.85117 9.60699L8.81701 11.5728L13.1492 7.24831C13.3663 7.03154 13.7181 7.03185 13.9349 7.249Z" fill="white"/>
</g>
</svg>
