<svg width="24" height="24" viewBox="0 0 24 24" fill="none" xmlns="http://www.w3.org/2000/svg">
<g id="ico/lg/checkbox">
<path id="Vector (Stroke)" fill-rule="evenodd" clip-rule="evenodd" d="M3.15351 3.15376C4.46471 1.84256 6.43417 1.3335 8.99992 1.3335H14.9999C17.5657 1.3335 19.5351 1.84256 20.8463 3.15376C22.1575 4.46495 22.6666 6.43441 22.6666 9.00016V15.0002C22.6666 17.5659 22.1575 19.5354 20.8463 20.8466C19.5351 22.1578 17.5657 22.6668 14.9999 22.6668H8.99992C6.43417 22.6668 4.46471 22.1578 3.15351 20.8466C1.84232 19.5354 1.33325 17.5659 1.33325 15.0002V9.00016C1.33325 6.43441 1.84232 4.46495 3.15351 3.15376ZM4.09632 4.09657C3.15752 5.03537 2.66659 6.56592 2.66659 9.00016V15.0002C2.66659 17.4344 3.15752 18.965 4.09632 19.9038C5.03513 20.8426 6.56567 21.3335 8.99992 21.3335H14.9999C17.4342 21.3335 18.9647 20.8426 19.9035 19.9038C20.8423 18.965 21.3333 17.4344 21.3333 15.0002V9.00016C21.3333 6.56592 20.8423 5.03537 19.9035 4.09657C18.9647 3.15776 17.4342 2.66683 14.9999 2.66683H8.99992C6.56567 2.66683 5.03513 3.15776 4.09632 4.09657Z" fill="#BDBDBD"/>
</g>
</svg>
