<svg width="14" height="14" viewBox="0 0 14 14" fill="none" xmlns="http://www.w3.org/2000/svg">
<g id="frame">
<g id="vuesax/linear/heart">
<g id="heart">
<path id="Vector (Stroke)" fill-rule="evenodd" clip-rule="evenodd" d="M4.40996 2.24603C2.86279 2.24603 1.60413 3.50644 1.60413 5.06937C1.60413 6.9655 2.47952 8.48473 3.58118 9.61347C4.68811 10.7476 5.99659 11.458 6.77964 11.7253L6.78391 11.7268C6.82169 11.7401 6.89999 11.7544 6.99996 11.7544C7.09993 11.7544 7.17824 11.7401 7.21602 11.7268L7.22027 11.7253C8.00332 11.458 9.31181 10.7476 10.4187 9.61347C11.5204 8.48473 12.3958 6.9655 12.3958 5.06937C12.3958 3.50644 11.1371 2.24603 9.58996 2.24603C8.67867 2.24603 7.86154 2.68885 7.35119 3.37604C7.26866 3.48718 7.13839 3.5527 6.99996 3.5527C6.86153 3.5527 6.73126 3.48718 6.64872 3.37604C6.13811 2.68849 5.32665 2.24603 4.40996 2.24603ZM0.729126 5.06937C0.729126 3.02729 2.37546 1.37103 4.40996 1.37103C5.42306 1.37103 6.33762 1.78286 7.00015 2.44712C7.66406 1.78266 8.58206 1.37103 9.58996 1.37103C11.6245 1.37103 13.2708 3.02729 13.2708 5.06937C13.2708 7.25657 12.2562 8.98359 11.0449 10.2246C9.83981 11.4594 8.41364 12.2421 7.50493 12.5527C7.34492 12.6088 7.16171 12.6294 6.99996 12.6294C6.83821 12.6294 6.655 12.6088 6.49499 12.5527C5.58628 12.2421 4.16011 11.4594 2.95499 10.2246C1.74373 8.98359 0.729126 7.25657 0.729126 5.06937Z" fill="#9E9E9E"/>
</g>
</g>
</g>
</svg>
