<svg width="20" height="20" viewBox="0 0 20 20" fill="none" xmlns="http://www.w3.org/2000/svg">
<g id="vuesax/linear/heart">
<g id="vuesax/linear/heart_2">
<g id="heart">
<path id="Vector (Stroke)" fill-rule="evenodd" clip-rule="evenodd" d="M1.04166 7.24183C1.04166 4.32458 3.39357 1.9585 6.3 1.9585C7.74728 1.9585 9.0538 2.54682 10.0003 3.49576C10.9487 2.54653 12.2601 1.9585 13.7 1.9585C16.6064 1.9585 18.9583 4.32458 18.9583 7.24183C18.9583 10.3664 17.5089 12.8336 15.7785 14.6065C14.0569 16.3704 12.0195 17.4886 10.7214 17.9324C10.4928 18.0124 10.2311 18.0418 10 18.0418C9.76893 18.0418 9.5072 18.0124 9.27862 17.9324C7.98045 17.4886 5.94307 16.3704 4.22147 14.6065C2.4911 12.8336 1.04166 10.3664 1.04166 7.24183Z" fill="#212123"/>
</g>
</g>
</g>
</svg>
