<svg width="14" height="14" viewBox="0 0 14 14" fill="none" xmlns="http://www.w3.org/2000/svg">
<g id="frame">
<g id="vuesax/linear/heart">
<g id="heart">
<path id="Vector (Stroke)" fill-rule="evenodd" clip-rule="evenodd" d="M4.40996 2.24609C2.86279 2.24609 1.60413 3.5065 1.60413 5.06943C1.60413 6.96556 2.47952 8.48479 3.58118 9.61354C4.68811 10.7477 5.99659 11.4581 6.77964 11.7254L6.78391 11.7268C6.82169 11.7402 6.89999 11.7544 6.99996 11.7544C7.09993 11.7544 7.17824 11.7402 7.21602 11.7269L7.22027 11.7254C8.00332 11.4581 9.31181 10.7477 10.4187 9.61354C11.5204 8.48479 12.3958 6.96556 12.3958 5.06943C12.3958 3.5065 11.1371 2.24609 9.58996 2.24609C8.67867 2.24609 7.86154 2.68891 7.35119 3.3761C7.26866 3.48724 7.13839 3.55276 6.99996 3.55276C6.86153 3.55276 6.73126 3.48724 6.64872 3.3761C6.13811 2.68855 5.32665 2.24609 4.40996 2.24609ZM0.729126 5.06943C0.729126 3.02735 2.37546 1.37109 4.40996 1.37109C5.42306 1.37109 6.33762 1.78292 7.00015 2.44718C7.66406 1.78272 8.58206 1.37109 9.58996 1.37109C11.6245 1.37109 13.2708 3.02735 13.2708 5.06943C13.2708 7.25663 12.2562 8.98365 11.0449 10.2247C9.83981 11.4595 8.41364 12.2422 7.50493 12.5528C7.34492 12.6089 7.16171 12.6294 6.99996 12.6294C6.83821 12.6294 6.655 12.6089 6.49499 12.5528C5.58628 12.2422 4.16011 11.4595 2.95499 10.2247C1.74373 8.98365 0.729126 7.25663 0.729126 5.06943Z" fill="#CBF310"/>
</g>
</g>
</g>
</svg>
