<svg width="18" height="18" viewBox="0 0 18 18" fill="none" xmlns="http://www.w3.org/2000/svg">
<g id="vuesax/linear/heart">
<g id="heart">
<path id="Vector (Stroke)" fill-rule="evenodd" clip-rule="evenodd" d="M5.30002 2.2085C3.08978 2.2085 1.29169 4.00908 1.29169 6.24183C1.29169 8.95059 2.54225 11.1209 4.11605 12.7334C5.69738 14.3536 7.56664 15.3685 8.68528 15.7503L8.69138 15.7524C8.74535 15.7715 8.8572 15.7918 9.00002 15.7918C9.14284 15.7918 9.25471 15.7715 9.30867 15.7525L9.31476 15.7503C10.4334 15.3684 12.3027 14.3536 13.884 12.7334C15.4578 11.1209 16.7084 8.95059 16.7084 6.24183C16.7084 4.00908 14.9103 2.2085 12.7 2.2085C11.3982 2.2085 10.2308 2.84109 9.50179 3.8228C9.38388 3.98157 9.19778 4.07516 9.00002 4.07516C8.80226 4.07516 8.61616 3.98157 8.49826 3.8228C7.76881 2.84058 6.60958 2.2085 5.30002 2.2085ZM0.041687 6.24183C0.041687 3.32458 2.39359 0.958496 5.30002 0.958496C6.7473 0.958496 8.05382 1.54682 9.00029 2.49576C9.94874 1.54653 11.2602 0.958496 12.7 0.958496C15.6065 0.958496 17.9584 3.32458 17.9584 6.24183C17.9584 9.3664 16.5089 11.8336 14.7785 13.6065C13.0569 15.3704 11.0196 16.4886 9.7214 16.9324C9.49282 17.0124 9.23109 17.0418 9.00002 17.0418C8.76895 17.0418 8.50723 17.0124 8.27864 16.9324C6.98047 16.4886 4.9431 15.3704 3.22149 13.6065C1.49112 11.8336 0.041687 9.3664 0.041687 6.24183Z" fill="#212123"/>
</g>
</g>
</svg>
