<svg width="14" height="14" viewBox="0 0 14 14" fill="none" xmlns="http://www.w3.org/2000/svg">
<g id="ico/like/s/Variant2">
<g id="vuesax/linear/heart">
<g id="heart">
<path id="Vector (Stroke)" d="M0.729126 5.06943C0.729126 3.02735 2.37546 1.37109 4.40996 1.37109C5.42306 1.37109 6.33762 1.78292 7.00015 2.44718C7.66406 1.78272 8.58206 1.37109 9.58996 1.37109C11.6245 1.37109 13.2708 3.02735 13.2708 5.06943C13.2708 7.25663 12.2562 8.98365 11.0449 10.2247C9.83981 11.4595 8.41364 12.2422 7.50493 12.5528C7.34492 12.6089 7.16171 12.6294 6.99996 12.6294C6.83821 12.6294 6.655 12.6089 6.49499 12.5528C5.58628 12.2422 4.16011 11.4595 2.95499 10.2247C1.74373 8.98365 0.729126 7.25663 0.729126 5.06943Z" fill="#CBF310"/>
</g>
</g>
</g>
</svg>
