<svg width="16" height="17" viewBox="0 0 16 17" fill="none" xmlns="http://www.w3.org/2000/svg">
<g id="ico/help">
<g id="help">
<g id="Group 1636">
<path id="Vector" d="M7.99998 8.81295C7.70457 8.81295 7.45959 8.55798 7.45959 8.25051V8.09306C7.45959 7.22316 8.07202 6.7957 8.30259 6.63072C8.56918 6.44325 8.65564 6.31577 8.65564 6.12079C8.65564 5.74583 8.36024 5.43834 7.99998 5.43834C7.63972 5.43834 7.34433 5.74583 7.34433 6.12079C7.34433 6.42825 7.09935 6.68322 6.80394 6.68322C6.50853 6.68322 6.26355 6.42825 6.26355 6.12079C6.26355 5.12341 7.04169 4.31348 7.99998 4.31348C8.95828 4.31348 9.73642 5.12341 9.73642 6.12079C9.73642 6.97569 9.13121 7.40313 8.90785 7.56061C8.62684 7.75558 8.54037 7.88309 8.54037 8.09306V8.25051C8.54037 8.56548 8.2954 8.81295 7.99998 8.81295Z" fill="#BDBDBD"/>
<path id="Vector_2" d="M7.99995 10.3915C7.92471 10.3915 7.84946 10.3742 7.78001 10.3452C7.71055 10.3163 7.64688 10.2758 7.589 10.2237C7.5369 10.1658 7.49639 10.1079 7.46745 10.0327C7.43851 9.96322 7.42114 9.88798 7.42114 9.81273C7.42114 9.73749 7.43851 9.66224 7.46745 9.59279C7.49639 9.52333 7.5369 9.45966 7.589 9.40178C7.64688 9.34968 7.71055 9.30917 7.78001 9.28023C7.91892 9.22235 8.08099 9.22235 8.2199 9.28023C8.28936 9.30917 8.35303 9.34968 8.41091 9.40178C8.463 9.45966 8.50352 9.52333 8.53246 9.59279C8.5614 9.66224 8.57877 9.73749 8.57877 9.81273C8.57877 9.88798 8.5614 9.96322 8.53246 10.0327C8.50352 10.1079 8.463 10.1658 8.41091 10.2237C8.35303 10.2758 8.28936 10.3163 8.2199 10.3452C8.15044 10.3742 8.0752 10.3915 7.99995 10.3915Z" fill="#BDBDBD"/>
</g>
<path id="Vector_3" d="M8.00005 13.7223C4.5677 13.7223 1.77783 10.9324 1.77783 7.50005C1.77783 4.0677 4.5677 1.27783 8.00005 1.27783C11.4324 1.27783 14.2223 4.0677 14.2223 7.50005C14.2223 10.9324 11.4324 13.7223 8.00005 13.7223ZM8.00005 2.14605C5.04812 2.14605 2.64605 4.54812 2.64605 7.50005C2.64605 10.452 5.04812 12.8541 8.00005 12.8541C10.952 12.8541 13.3541 10.452 13.3541 7.50005C13.3541 4.54812 10.952 2.14605 8.00005 2.14605Z" fill="#BDBDBD"/>
</g>
</g>
</svg>
