<svg width="22" height="20" viewBox="0 0 22 20" fill="none" xmlns="http://www.w3.org/2000/svg">
<g id="vuesax/linear/heart">
<g id="heart">
<path id="Vector (Stroke)" fill-rule="evenodd" clip-rule="evenodd" d="M6.56 1.84998C3.90771 1.84998 1.75 4.01068 1.75 6.68998C1.75 9.94049 3.25068 12.5449 5.13923 14.4799C7.03683 16.4241 9.27995 17.6419 10.6223 18.1002L10.6296 18.1027C10.6944 18.1256 10.8286 18.15 11 18.15C11.1714 18.15 11.3056 18.1256 11.3704 18.1027L11.3777 18.1002C12.72 17.6419 14.9632 16.4241 16.8608 14.4799C18.7493 12.5449 20.25 9.94049 20.25 6.68998C20.25 4.01068 18.0923 1.84998 15.44 1.84998C13.8778 1.84998 12.477 2.60909 11.6021 3.78714C11.4606 3.97766 11.2373 4.08998 11 4.08998C10.7627 4.08998 10.5394 3.97766 10.3979 3.78714C9.52255 2.60847 8.13147 1.84998 6.56 1.84998ZM0.25 6.68998C0.25 3.18927 3.07229 0.349976 6.56 0.349976C8.29674 0.349976 9.86456 1.05596 11.0003 2.19469C12.1385 1.05561 13.7122 0.349976 15.44 0.349976C18.9277 0.349976 21.75 3.18927 21.75 6.68998C21.75 10.4395 20.0107 13.4001 17.9342 15.5276C15.8683 17.6443 13.4235 18.9861 11.8657 19.5186C11.5914 19.6147 11.2773 19.65 11 19.65C10.7227 19.65 10.4086 19.6147 10.1343 19.5186C8.57655 18.9861 6.13169 17.6443 4.06577 15.5276C1.98932 13.4001 0.25 10.4395 0.25 6.68998Z" fill="white"/>
</g>
</g>
</svg>
