<svg width="24" height="24" viewBox="0 0 24 24" fill="none" xmlns="http://www.w3.org/2000/svg">
<g id="vuesax/linear/heart">
<g id="vuesax/linear/heart_2">
<g id="heart">
<path id="Vector (Stroke)" fill-rule="evenodd" clip-rule="evenodd" d="M1.25 8.68998C1.25 5.18927 4.07229 2.34998 7.56 2.34998C9.29674 2.34998 10.8646 3.05596 12.0003 4.19469C13.1385 3.05561 14.7122 2.34998 16.44 2.34998C19.9277 2.34998 22.75 5.18927 22.75 8.68998C22.75 12.4395 21.0107 15.4001 18.9342 17.5276C16.8683 19.6443 14.4235 20.9861 12.8657 21.5186C12.5914 21.6147 12.2773 21.65 12 21.65C11.7227 21.65 11.4086 21.6147 11.1343 21.5186C9.57655 20.9861 7.13169 19.6443 5.06577 17.5276C2.98932 15.4001 1.25 12.4395 1.25 8.68998Z" fill="#CBF310"/>
</g>
</g>
</g>
</svg>
