<svg width="20" height="20" viewBox="0 0 20 20" fill="none" xmlns="http://www.w3.org/2000/svg">
<g id="vuesax/linear/like-tag">
<g id="like-tag">
<g id="Group">
<path id="Vector (Stroke)" fill-rule="evenodd" clip-rule="evenodd" d="M10.9812 4.16861C11.6512 4.39161 12.0966 5.11286 11.9569 5.81965L11.7746 6.98378H13.2917C13.7842 6.98378 14.2443 7.18377 14.5313 7.571C14.8201 7.96071 14.8747 8.46128 14.7082 8.93576L13.6742 12.0707C13.5603 12.487 13.2872 12.8201 12.9786 13.0451C12.6648 13.2738 12.2676 13.4254 11.8583 13.4254H10.2084C10.0209 13.4254 9.80162 13.3965 9.59567 13.3387C9.41606 13.2882 9.17091 13.1952 8.97597 13.0171L7.65839 11.9942L8.42497 11.0068L9.79758 12.0725L9.81473 12.0897C9.81756 12.0913 9.82173 12.0936 9.82744 12.0964C9.85055 12.1079 9.88609 12.1219 9.93353 12.1352C10.0318 12.1628 10.1374 12.1754 10.2084 12.1754H11.8583C11.9657 12.1754 12.1102 12.1313 12.2423 12.035C12.374 11.939 12.4466 11.8259 12.4698 11.736L12.475 11.716L13.5254 8.53101L13.5279 8.52407C13.5748 8.39249 13.5408 8.33389 13.5271 8.3153C13.5099 8.29213 13.4492 8.23378 13.2917 8.23378H11.5583C10.9319 8.23378 10.4106 7.69295 10.506 7.00614L10.5075 6.9954L10.7268 5.59529L10.7304 5.57869C10.7349 5.55761 10.7336 5.5108 10.6997 5.45389C10.666 5.39734 10.6201 5.36536 10.585 5.35416L10.5686 5.34893L10.5525 5.3428C10.5417 5.33867 10.4995 5.33057 10.4342 5.35299C10.4045 5.36321 10.3797 5.37677 10.3625 5.38931C10.3539 5.39558 10.3492 5.4001 10.3473 5.402L10.3439 5.40737L8.56879 8.04901L7.53125 7.35187L9.30361 4.71409C9.47896 4.44581 9.75508 4.26455 10.0283 4.17074C10.3043 4.07596 10.6472 4.04644 10.9812 4.16861Z" fill="#212123"/>
<path id="Vector (Stroke)_2" fill-rule="evenodd" clip-rule="evenodd" d="M6.47403 7.0795C6.46694 7.10868 6.45837 7.16383 6.45837 7.25859V11.5003C6.45837 11.5951 6.46694 11.6502 6.47403 11.6794C6.51307 11.6897 6.58343 11.7003 6.70004 11.7003H7.13337C7.24998 11.7003 7.32035 11.6897 7.35939 11.6794C7.36648 11.6502 7.37505 11.5951 7.37505 11.5003V7.25859C7.37505 7.16383 7.36648 7.10868 7.35939 7.07951C7.32035 7.06921 7.24998 7.05859 7.13337 7.05859H6.70004C6.58343 7.05859 6.51307 7.06921 6.47403 7.0795ZM6.48331 7.05174C6.48337 7.05182 6.48286 7.05299 6.48163 7.05503C6.48263 7.05268 6.48325 7.05166 6.48331 7.05174ZM7.35011 7.05175C7.35017 7.05167 7.35079 7.05269 7.35179 7.05504C7.35056 7.053 7.35005 7.05183 7.35011 7.05175ZM7.35011 11.7072C7.35005 11.7071 7.35056 11.7059 7.35179 11.7039C7.35079 11.7062 7.35017 11.7072 7.35011 11.7072ZM6.48331 11.7072C6.48325 11.7072 6.48263 11.7062 6.48163 11.7039C6.48286 11.7059 6.48337 11.7071 6.48331 11.7072ZM5.61395 6.15936C5.93124 5.86558 6.34847 5.80859 6.70004 5.80859H7.13337C7.48494 5.80859 7.90217 5.86558 8.21946 6.15936C8.54861 6.46412 8.62505 6.88542 8.62505 7.25859V11.5003C8.62505 11.8735 8.54861 12.2948 8.21946 12.5996C7.90217 12.8933 7.48494 12.9503 7.13337 12.9503H6.70004C6.34847 12.9503 5.93124 12.8933 5.61395 12.5995C5.2848 12.2948 5.20837 11.8735 5.20837 11.5003V7.25859C5.20837 6.88543 5.2848 6.46413 5.61395 6.15936Z" fill="#212123"/>
</g>
<path id="Vector (Stroke)_3" fill-rule="evenodd" clip-rule="evenodd" d="M5 2.30078C3.95637 2.30078 3.125 3.13472 3.125 4.15076V13.2425C3.125 14.2585 3.95637 15.0924 5 15.0924H5.625C6.44388 15.0924 7.2453 15.4129 7.83226 15.9991C7.83271 15.9996 7.83316 16 7.8336 16.0005L9.25575 17.406C9.25571 17.406 9.25578 17.4061 9.25575 17.406C9.66226 17.8072 10.3291 17.8074 10.7357 17.4063M10.7357 17.4063L12.1581 16.0005C12.1585 16 12.159 15.9995 12.1595 15.999C12.7457 15.4136 13.5384 15.0924 14.3667 15.0924H15C16.0423 15.0924 16.875 14.2515 16.875 13.2425V4.15076C16.875 3.13472 16.0436 2.30078 15 2.30078H5M1.875 4.15076C1.875 2.43346 3.27697 1.05078 5 1.05078H15C16.723 1.05078 18.125 2.43346 18.125 4.15076V13.2425C18.125 14.9501 16.7244 16.3424 15 16.3424H14.3667C13.8623 16.3424 13.389 16.5374 13.0419 16.8844L13.0393 16.887L11.6143 18.2953C10.7209 19.1773 9.271 19.1776 8.37759 18.2956L6.95232 16.887L6.94972 16.8844C6.60347 16.5381 6.12216 16.3424 5.625 16.3424H5C3.27697 16.3424 1.875 14.9597 1.875 13.2425V4.15076Z" fill="#212123"/>
</g>
</g>
</svg>
