<svg width="14" height="14" viewBox="0 0 14 14" fill="none" xmlns="http://www.w3.org/2000/svg">
<g id="vuesax/linear/location-minus">
<g id="location-minus">
<path id="Vector (Stroke)" fill-rule="evenodd" clip-rule="evenodd" d="M4.95837 6.41669C4.95837 6.17506 5.15425 5.97919 5.39587 5.97919H8.60421C8.84583 5.97919 9.04171 6.17506 9.04171 6.41669C9.04171 6.65831 8.84583 6.85419 8.60421 6.85419H5.39587C5.15425 6.85419 4.95837 6.65831 4.95837 6.41669Z" fill="#9E9E9E"/>
<path id="Vector (Stroke)_2" fill-rule="evenodd" clip-rule="evenodd" d="M7.00189 1.60419C5.00879 1.60284 3.05937 2.75937 2.53832 5.0493C1.92171 7.77359 3.60971 10.1361 5.19761 11.6665C6.20707 12.6356 7.79373 12.6344 8.79617 11.6669L8.79697 11.6661C10.3906 10.1358 12.0783 7.77902 11.4616 5.05495L11.4616 5.05493C10.9433 2.76485 8.99511 1.60554 7.00189 1.60419ZM12.315 4.86176C11.69 2.10019 9.32446 0.730758 7.00248 0.729188C4.68044 0.727619 2.31327 2.09391 1.68506 4.85548L1.68496 4.85593C0.96005 8.05814 2.95854 10.7238 4.59056 12.2967L4.59111 12.2972C5.93826 13.591 8.06115 13.5922 9.4036 12.2967C11.0415 10.7236 13.0399 8.06398 12.315 4.86176Z" fill="#9E9E9E"/>
</g>
</g>
</svg>
