<svg width="20" height="20" viewBox="0 0 20 20" fill="none" xmlns="http://www.w3.org/2000/svg">
<g id="message">
<path id="Vector" d="M10 19.0082C9.42502 19.0082 8.88335 18.7165 8.50002 18.2082L7.25002 16.5415C7.22502 16.5082 7.12502 16.4665 7.08335 16.4582H6.66669C3.19169 16.4582 1.04169 15.5165 1.04169 10.8332V6.6665C1.04169 2.98317 2.98335 1.0415 6.66669 1.0415H13.3334C17.0167 1.0415 18.9584 2.98317 18.9584 6.6665V10.8332C18.9584 14.5165 17.0167 16.4582 13.3334 16.4582H12.9167C12.85 16.4582 12.7917 16.4915 12.75 16.5415L11.5 18.2082C11.1167 18.7165 10.575 19.0082 10 19.0082ZM6.66669 2.2915C3.68335 2.2915 2.29169 3.68317 2.29169 6.6665V10.8332C2.29169 14.5998 3.58335 15.2082 6.66669 15.2082H7.08335C7.50835 15.2082 7.99169 15.4498 8.25002 15.7915L9.50002 17.4582C9.79169 17.8415 10.2084 17.8415 10.5 17.4582L11.75 15.7915C12.025 15.4248 12.4584 15.2082 12.9167 15.2082H13.3334C16.3167 15.2082 17.7084 13.8165 17.7084 10.8332V6.6665C17.7084 3.68317 16.3167 2.2915 13.3334 2.2915H6.66669Z" fill="#212123"/>
<path id="Vector_2" d="M10 9.99967C9.53335 9.99967 9.16669 9.62467 9.16669 9.16634C9.16669 8.70801 9.54169 8.33301 10 8.33301C10.4584 8.33301 10.8334 8.70801 10.8334 9.16634C10.8334 9.62467 10.4667 9.99967 10 9.99967Z" fill="#212123"/>
<path id="Vector_3" d="M13.3333 9.99967C12.8667 9.99967 12.5 9.62467 12.5 9.16634C12.5 8.70801 12.875 8.33301 13.3333 8.33301C13.7917 8.33301 14.1667 8.70801 14.1667 9.16634C14.1667 9.62467 13.8 9.99967 13.3333 9.99967Z" fill="#212123"/>
<path id="Vector_4" d="M6.66665 9.99967C6.19998 9.99967 5.83331 9.62467 5.83331 9.16634C5.83331 8.70801 6.20831 8.33301 6.66665 8.33301C7.12498 8.33301 7.49998 8.70801 7.49998 9.16634C7.49998 9.62467 7.13331 9.99967 6.66665 9.99967Z" fill="#212123"/>
</g>
</svg>
