<svg width="21" height="22" viewBox="0 0 21 22" fill="none" xmlns="http://www.w3.org/2000/svg">
<g id="type=ico,name=share,color=bl1,size=xl">
<g id="export">
<path id="Vector (Stroke)" fill-rule="evenodd" clip-rule="evenodd" d="M14.1927 7.8356C14.2283 7.42291 14.5916 7.11717 15.0043 7.15271C16.9163 7.31735 18.4137 7.9053 19.4074 9.12988C20.3842 10.3338 20.76 12.0163 20.76 14.1099V14.2399C20.76 16.5491 20.3022 18.3609 19.0866 19.5765C17.8709 20.7922 16.0592 21.2499 13.75 21.2499H7.23998C4.9308 21.2499 3.11903 20.7922 1.9034 19.5765C0.687768 18.3609 0.22998 16.5491 0.22998 14.2399V14.1099C0.22998 12.0315 0.600687 10.3591 1.56183 9.15768C2.54031 7.93457 4.01591 7.33885 5.90037 7.16318C6.31279 7.12474 6.6783 7.42791 6.71674 7.84033C6.75519 8.25276 6.45202 8.61826 6.03959 8.65671C4.38405 8.81104 3.36465 9.30532 2.73313 10.0947C2.08427 10.9058 1.72998 12.1684 1.72998 14.1099V14.2399C1.72998 16.4008 2.16719 17.719 2.96406 18.5159C3.76093 19.3127 5.07916 19.7499 7.23998 19.7499H13.75C15.9108 19.7499 17.229 19.3127 18.0259 18.5159C18.8228 17.719 19.26 16.4008 19.26 14.2399V14.1099C19.26 12.1536 18.9007 10.8861 18.2426 10.075C17.6012 9.2846 16.5637 8.79254 14.8756 8.64718C14.4629 8.61164 14.1572 8.24829 14.1927 7.8356Z" fill="#212123"/>
<path id="Vector (Stroke)_2" fill-rule="evenodd" clip-rule="evenodd" d="M10.5 1.87012C10.9142 1.87012 11.25 2.2059 11.25 2.62012V14.0001C11.25 14.4143 10.9142 14.7501 10.5 14.7501C10.0858 14.7501 9.75 14.4143 9.75 14.0001V2.62012C9.75 2.2059 10.0858 1.87012 10.5 1.87012Z" fill="#212123"/>
<path id="Vector (Stroke)_3" fill-rule="evenodd" clip-rule="evenodd" d="M9.96963 0.96967C10.2625 0.676777 10.7374 0.676777 11.0303 0.96967L14.3803 4.31967C14.6732 4.61256 14.6732 5.08744 14.3803 5.38033C14.0874 5.67322 13.6125 5.67322 13.3196 5.38033L10.5 2.56066L7.68029 5.38033C7.3874 5.67322 6.91253 5.67322 6.61963 5.38033C6.32674 5.08744 6.32674 4.61256 6.61963 4.31967L9.96963 0.96967Z" fill="#212123"/>
</g>
</g>
</svg>
