<svg width="20" height="20" viewBox="0 0 20 20" fill="none" xmlns="http://www.w3.org/2000/svg">
<g id="t=ico, s=lg, n=checkbox, st=selected, c=sec">
<path id="Vector (Stroke)" d="M2.62797 2.62821C3.72063 1.53555 5.36185 1.11133 7.49997 1.11133H12.5C14.6381 1.11133 16.2793 1.53555 17.372 2.62821C18.4646 3.72088 18.8889 5.36209 18.8889 7.50022V12.5002C18.8889 14.6383 18.4646 16.2796 17.372 17.3722C16.2793 18.4649 14.6381 18.8891 12.5 18.8891H7.49997C5.36185 18.8891 3.72063 18.4649 2.62797 17.3722C1.53531 16.2796 1.11108 14.6383 1.11108 12.5002V7.50022C1.11108 5.36209 1.53531 3.72088 2.62797 2.62821Z" fill="#7772FC"/>
<path id="Vector (Stroke)_2" fill-rule="evenodd" clip-rule="evenodd" d="M13.9349 7.249C14.1517 7.46615 14.1514 7.81791 13.9342 8.03468L9.20921 12.7513C8.9922 12.968 8.64071 12.9678 8.42388 12.751L6.06555 10.3927C5.84859 10.1757 5.84859 9.82395 6.06555 9.60699C6.28251 9.39003 6.63427 9.39003 6.85122 9.60699L8.81707 11.5728L13.1492 7.24831C13.3664 7.03154 13.7181 7.03185 13.9349 7.249Z" fill="white"/>
</g>
</svg>
