<svg width="20" height="20" viewBox="0 0 20 20" fill="none" xmlns="http://www.w3.org/2000/svg">
<g id="t=ico, s=lg, n=checkbox, st=default, c=gr2">
<path id="Vector (Stroke)" fill-rule="evenodd" clip-rule="evenodd" d="M2.62797 2.62821C3.72063 1.53555 5.36185 1.11133 7.49997 1.11133H12.5C14.6381 1.11133 16.2793 1.53555 17.372 2.62821C18.4646 3.72088 18.8889 5.36209 18.8889 7.50022V12.5002C18.8889 14.6383 18.4646 16.2796 17.372 17.3722C16.2793 18.4649 14.6381 18.8891 12.5 18.8891H7.49997C5.36185 18.8891 3.72063 18.4649 2.62797 17.3722C1.53531 16.2796 1.11108 14.6383 1.11108 12.5002V7.50022C1.11108 5.36209 1.53531 3.72088 2.62797 2.62821ZM3.41364 3.41389C2.63131 4.19623 2.2222 5.47168 2.2222 7.50022V12.5002C2.2222 14.5288 2.63131 15.8042 3.41364 16.5865C4.19598 17.3689 5.47143 17.778 7.49997 17.778H12.5C14.5285 17.778 15.804 17.3689 16.5863 16.5865C17.3686 15.8042 17.7778 14.5288 17.7778 12.5002V7.50022C17.7778 5.47168 17.3686 4.19623 16.5863 3.41389C15.804 2.63155 14.5285 2.22244 12.5 2.22244H7.49997C5.47143 2.22244 4.19598 2.63155 3.41364 3.41389Z" fill="#9E9E9E"/>
</g>
</svg>
